<svg width="121" height="119" viewBox="0 0 121 119" fill="none" xmlns="http://www.w3.org/2000/svg">
<path d="M18.0339 29.5946C18.0339 23.2335 18.0339 17.2603 18.0339 11.2871C18.0339 3.21934 21.2675 0 29.3911 0C49.8183 0 70.2455 0 90.6727 0C98.8752 0 102.109 3.18055 102.109 11.2095C102.109 17.0276 102.148 22.8069 102.148 28.625C102.148 28.8189 102.267 28.974 102.464 29.5946C103.213 29.5946 104.12 29.5558 105.027 29.5946C113.624 29.9049 119.736 35.6067 120.012 44.0235C120.288 52.0136 120.17 60.0426 120.012 68.0715C119.894 73.1527 117.607 77.2641 113.229 80.1344C111.494 81.298 109.799 81.4143 108.576 79.5913C107.433 77.9235 108.063 76.4108 109.72 75.3247C112.914 73.2302 114.097 70.2824 114.058 66.5976C113.979 59.4996 114.058 52.4015 114.018 45.3035C114.018 39.0587 110.469 35.3739 104.199 35.3739C76.5551 35.3739 48.9508 35.4515 21.307 35.4903C19.3352 35.4903 17.3635 35.3351 15.4312 35.3739C9.79203 35.5679 6.16403 39.1751 6.12459 44.6829C6.08516 52.2464 6.12459 59.8099 6.12459 67.3346C6.12459 70.5927 7.3865 73.2302 10.1469 75.092C11.9609 76.2944 12.8679 77.8459 11.4089 79.7077C9.94977 81.6083 8.13577 80.9877 6.47951 79.7853C2.22055 76.7599 0.130505 72.5709 0.0910707 67.4897C0.0122012 59.7323 -0.0666684 52.0136 0.0910707 44.2562C0.24881 35.723 6.4795 29.7498 15.0763 29.4783C15.9044 29.5559 16.7325 29.5946 18.0339 29.5946ZM96.0359 29.4395C96.0359 22.8457 96.0359 16.6009 96.0359 10.3174C96.0359 6.78776 95.2077 5.93444 91.5403 5.93444C78.2508 5.93444 64.9218 5.93444 51.6323 5.93444C43.7454 5.93444 35.8978 5.93444 28.0109 5.93444C25.9997 5.93444 24.2252 6.51625 24.1857 8.64955C24.028 15.5149 24.1463 22.419 24.1463 29.4007C48.2015 29.4395 71.9412 29.4395 96.0359 29.4395Z" fill="#FFE302"/>
<path d="M18.034 65.1625C16.7326 65.0462 15.5101 65.3177 14.8003 64.8135C13.7356 64.0765 12.4737 62.8353 12.3948 61.7493C12.3554 60.8959 13.8933 59.7711 14.9186 59.1117C15.5101 58.7239 16.5749 58.9954 17.403 58.9954C45.9538 58.9954 74.544 58.9954 103.095 58.9954C103.844 58.9954 104.79 58.7239 105.303 59.0729C106.328 59.8099 107.748 60.8572 107.787 61.7881C107.827 62.7577 106.565 64.0377 105.579 64.6971C104.83 65.2013 103.607 64.9298 102.148 65.085C102.148 66.0546 102.148 67.0243 102.148 67.994C102.148 80.9877 102.148 93.9814 102.148 106.975C102.148 114.771 98.7964 118.029 90.8305 118.029C70.4033 118.029 49.9761 118.029 29.5883 118.029C21.307 118.029 18.0734 114.849 18.0734 106.626C18.0734 93.8263 18.0734 81.0265 18.0734 68.2267C18.034 67.257 18.034 66.2486 18.034 65.1625ZM24.0675 65.1238C24.0675 66.0934 24.0675 66.908 24.0675 67.7225C24.0675 80.9877 24.0675 94.253 24.0675 107.479C24.0675 111.319 24.8562 112.056 28.8785 112.056C49.6606 112.056 70.4428 112.056 91.2249 112.056C95.2472 112.056 95.9965 111.319 95.9965 107.441C95.9965 94.1754 95.9965 80.9101 95.9965 67.6837C95.9965 66.8692 95.9176 66.0546 95.8782 65.1238C72.0202 65.1238 48.2804 65.1238 24.0675 65.1238Z" fill="#FFE302"/>
<path d="M93.0388 50.1519C91.9347 50.1519 90.5939 50.501 89.7263 50.0743C88.6616 49.5313 87.2814 48.2901 87.2419 47.3204C87.2025 46.3507 88.5433 44.6829 89.5292 44.4889C91.7769 44.0623 94.2219 44.0623 96.4697 44.4889C97.4555 44.6829 98.8752 46.4283 98.7569 47.2816C98.5991 48.3677 97.2189 49.4925 96.0753 50.1131C95.3261 50.501 94.0641 50.1519 93.0388 50.1519Z" fill="white"/>
<path d="M96.0358 29.4394C71.9412 29.4394 48.2015 29.4394 24.1068 29.4394C24.1068 22.4189 24.0279 15.5536 24.1462 8.68823C24.1857 6.55493 25.9602 5.93434 27.9714 5.97313C35.8584 6.01191 43.7059 5.97313 51.5928 5.97313C64.8824 5.97313 78.2113 5.97313 91.5008 5.97313C95.1288 5.97313 95.9964 6.78766 95.9964 10.3561C96.0358 16.562 96.0358 22.8456 96.0358 29.4394Z" fill="#2A0057"/>
<path d="M24.0674 65.1235C48.2409 65.1235 71.9806 65.1235 95.9175 65.1235C95.957 66.0544 96.0358 66.869 96.0358 67.6835C96.0358 80.9487 96.0358 94.2139 96.0358 107.44C96.0358 111.358 95.2866 112.056 91.2642 112.056C70.4821 112.056 49.7 112.056 28.9179 112.056C24.8955 112.056 24.1068 111.319 24.1068 107.479C24.1068 94.2139 24.1068 80.9487 24.1068 67.7223C24.0674 66.9077 24.0674 66.132 24.0674 65.1235ZM60.2685 76.7209C53.6435 76.7209 46.979 76.7597 40.3539 76.7209C38.1456 76.7209 36.2133 77.1476 36.1344 79.6299C36.095 82.1123 37.9879 82.6941 40.1962 82.6941C53.3674 82.6941 66.5386 82.6941 79.7493 82.6941C81.9182 82.6941 83.9294 82.2287 83.9688 79.7463C84.0082 77.07 81.8787 76.6821 79.5915 76.7209C73.1637 76.7597 66.6964 76.7209 60.2685 76.7209ZM53.8801 100.381C58.5728 100.381 63.2261 100.381 67.9188 100.381C70.0878 100.381 71.9806 99.8769 71.9412 97.2781C71.9018 94.8345 70.0878 94.4079 67.9977 94.4079C58.7305 94.4467 49.4634 94.4467 40.1962 94.4079C37.9484 94.4079 36.095 94.9897 36.1344 97.4721C36.1739 99.7605 37.9879 100.42 40.1173 100.381C44.6918 100.342 49.3056 100.381 53.8801 100.381Z" fill="#2A0057"/>
<path d="M60.2685 76.7211C66.7358 76.7211 73.1637 76.7599 79.631 76.6823C81.9182 76.6823 84.0082 77.0314 84.0082 79.7077C83.9688 82.1901 81.997 82.6556 79.7887 82.6556C66.6175 82.6168 53.4463 82.6556 40.2356 82.6556C38.0273 82.6556 36.095 82.0738 36.1738 79.5914C36.2133 77.109 38.185 76.6435 40.3934 76.6823C46.979 76.7599 53.6434 76.7211 60.2685 76.7211Z" fill="white"/>
<path d="M53.8801 100.381C49.3056 100.381 44.6918 100.381 40.1173 100.381C38.0273 100.381 36.1739 99.7606 36.1344 97.4721C36.095 94.9898 37.909 94.408 40.1962 94.408C49.4634 94.4467 58.7305 94.4467 67.9977 94.408C70.0878 94.408 71.8623 94.8346 71.9412 97.2782C72.0201 99.877 70.0878 100.381 67.9188 100.381C63.2261 100.381 58.5334 100.381 53.8801 100.381Z" fill="white"/>
</svg>
