<svg width="120" height="119" viewBox="0 0 120 119" fill="none" xmlns="http://www.w3.org/2000/svg">
<path d="M59.9778 118.029C26.8637 117.986 -0.0442748 91.5197 5.46943e-05 58.9493C0.0443842 26.2918 26.9967 -0.0435475 60.3768 5.40628e-05C93.3136 0.0436556 120.044 26.6842 120 59.4289C119.911 91.6069 92.826 118.073 59.9778 118.029ZM27.839 41.1599C27.3957 41.2471 27.2183 41.2907 27.041 41.2907C24.6472 41.2907 22.2091 41.4215 19.8153 41.2907C18.0865 41.1599 17.3329 41.7703 16.8009 43.34C11.4814 58.5133 13.4319 72.7274 22.9627 85.7207C25.5338 89.2524 28.9029 92.1737 32.1389 95.6182C33.8234 93.8742 35.0203 92.6533 36.2616 91.4325C38.7883 88.9036 38.744 85.4591 36.0842 83.1482C33.3801 80.8373 33.2028 77.1312 35.6853 74.6459C38.0791 72.2478 41.7584 72.2042 44.1522 74.5587C46.6347 77.0004 46.7233 80.9245 43.8419 82.9738C42.1131 84.1946 41.7141 85.5027 41.9801 87.2467C42.4234 90.2116 41.4038 92.4789 38.9657 94.2666C37.7688 95.1386 36.7049 96.0978 35.1533 97.4059C38.5224 98.9755 41.0935 100.109 43.6203 101.33C44.9501 101.984 45.8367 101.766 46.9006 100.676C49.4717 97.9727 52.0872 95.3566 54.8799 92.8713C55.6779 92.1301 57.0078 91.6069 58.116 91.5633C61.352 91.3889 64.5881 91.5197 67.8685 91.5197C67.8685 90.4296 67.8685 89.5576 67.8685 88.6856C66.0953 88.4676 64.0118 88.86 64.0118 86.2439C64.0118 83.8894 64.0118 81.4913 64.0118 79.1368C64.0118 77.6544 64.7654 76.826 66.3169 76.826C68.7107 76.826 71.1489 76.826 73.5426 76.826C75.1828 76.826 75.9808 77.6544 75.9808 79.224C75.9808 80.9245 75.9808 82.6686 75.9808 84.369C75.9808 88.2496 75.9808 88.2496 71.9911 88.8164C71.9911 89.9064 71.9911 91.0401 71.9911 92.1737C71.9911 95.0514 71.5922 95.4002 68.6664 95.4438C65.5633 95.4438 62.5046 95.4438 59.4016 95.4438C58.7809 95.4438 57.9387 95.4438 57.5397 95.7926C55.0573 98.1035 52.6191 100.502 50.048 103.074C68.9767 107.565 91.5404 98.8447 101.559 78.4828C110.602 60.0394 104.662 39.0234 94.0229 29.1695C94.0229 31.524 94.0229 33.704 94.0229 35.9277C94.0229 39.0234 93.7126 39.3722 90.6095 39.3722C87.8167 39.3722 84.9797 39.3722 82.1426 39.3722C81.9209 41.2471 82.3199 43.2964 79.6601 43.2964C77.2663 43.2964 74.8282 43.2964 72.4344 43.2964C70.7942 43.2964 70.0406 42.4243 70.0406 40.8111C70.0406 38.5002 70.0406 36.2329 70.0406 33.922C70.0406 32.3088 70.8386 31.4804 72.4787 31.4804C74.2076 31.4804 75.9808 31.4804 77.7096 31.4804C81.6993 31.4804 81.6993 31.4804 82.2312 35.2737C84.758 35.2737 87.2848 35.2737 90.0332 35.2737C90.0332 32.8756 89.8116 30.5647 90.0776 28.2974C90.3879 25.5942 89.3683 23.9373 87.1518 22.4548C74.5179 13.8217 60.9087 11.6417 46.2357 15.8274C46.2357 21.8008 46.2357 27.5562 46.2357 33.4424C48.4965 33.4424 50.58 33.5732 52.6635 33.3988C53.5057 33.3116 54.481 32.832 55.0129 32.2216C57.5397 29.1695 61.1747 28.6027 63.9675 31.0443C66.7159 33.3988 66.7602 37.2794 64.1448 39.7211C61.3964 42.2935 57.6284 41.7703 55.0129 38.631C54.481 38.0206 53.4614 37.4974 52.6635 37.4538C50.0037 37.323 47.3439 37.3666 44.6842 37.4102C42.911 37.4102 42.0687 36.6253 42.113 34.8813C42.1574 33.7476 42.113 32.5704 42.113 31.4368C42.113 26.9022 42.113 22.3676 42.113 17.3971C32.2276 21.7572 25.0462 28.2102 19.6823 37.4974C22.8741 37.4974 25.4008 37.4974 28.0163 37.4974C27.839 38.8054 27.839 39.9391 27.839 41.1599ZM4.21135 55.5484C4.21135 57.8593 4.21135 60.2574 4.21135 62.7427C6.25051 62.5247 8.02369 62.3503 9.75254 62.1758C10.5505 55.6792 10.5061 55.6356 4.78764 55.3304C4.65465 55.3304 4.47733 55.4612 4.21135 55.5484ZM95.7517 93.4381C94.0672 94.9206 92.5157 96.2722 90.9641 97.6675C92.161 99.2807 93.2693 100.763 94.5105 102.42C96.5053 100.632 98.2785 99.0627 100.229 97.3187C98.6331 95.9234 97.2589 94.7462 95.7517 93.4381ZM82.1426 14.8682C84.0931 15.9582 85.8662 16.9611 87.7281 18.0511C88.925 16.4378 89.9889 14.9554 91.2301 13.2985C88.925 11.9905 86.8858 10.8132 84.5807 9.50519C83.7384 11.4237 82.9848 13.0805 82.1426 14.8682ZM28.9915 20.362C27.7946 18.7923 26.5977 17.2663 25.3565 15.653C23.3617 17.4407 21.5885 19.0103 19.7267 20.7108C21.3669 22.1496 22.7411 23.3705 24.1596 24.5913C25.7998 23.1525 27.3513 21.8008 28.9915 20.362ZM90.9641 20.4056C92.6487 21.888 94.1559 23.1961 95.7961 24.6349C97.2146 23.3705 98.6331 22.106 100.229 20.7108C98.2342 18.9667 96.461 17.3971 94.5105 15.6966C93.2693 17.3535 92.161 18.7923 90.9641 20.4056ZM91.2301 104.731C89.9446 103.03 88.8363 101.548 87.6838 100.022C85.7776 101.112 84.0931 102.071 82.1426 103.205C82.9848 104.993 83.7384 106.693 84.625 108.568C87.0188 107.173 89.058 105.995 91.2301 104.731ZM28.9915 97.6239C27.2627 96.1414 25.7111 94.7898 24.1153 93.4381C22.6524 94.7898 21.2782 96.0106 19.7267 97.4059C21.7215 99.1499 23.4503 100.676 25.4452 102.42C26.6421 100.72 27.7503 99.2371 28.9915 97.6239ZM13.0329 41.9447C13.9638 39.8955 14.7618 38.1078 15.6484 36.1457C13.9638 35.1865 12.368 34.2709 10.5061 33.1808C9.3979 35.6225 8.42265 37.8026 7.40308 40.1135C9.35357 40.7675 11.0824 41.2907 13.0329 41.9447ZM106.923 76.1283C106.036 78.134 105.194 79.9653 104.307 81.9273C106.08 82.9302 107.676 83.8458 109.494 84.8486C110.602 82.407 111.577 80.2705 112.641 77.9596C110.602 77.3056 108.829 76.7388 106.923 76.1283ZM112.641 40.0699C111.533 37.7154 110.513 35.5353 109.45 33.2244C107.588 34.3145 106.036 35.1865 104.307 36.1893C105.194 38.1514 106.036 39.9827 106.923 41.9447C108.829 41.2907 110.602 40.7239 112.641 40.0699ZM15.6484 81.8837C14.6731 79.8345 13.8308 78.0468 12.9443 76.0847C10.9938 76.7388 9.22059 77.3056 7.27009 77.9596C8.37833 80.3577 9.35357 82.4942 10.4618 84.805C12.2793 83.8022 13.8308 82.9302 15.6484 81.8837ZM115.7 62.7427C115.7 60.2138 115.7 57.8157 115.7 55.3304C113.661 55.5048 111.888 55.6792 110.07 55.8536C110.07 58.0773 110.07 60.083 110.07 62.263C111.976 62.3938 113.794 62.5683 115.7 62.7427ZM51.5996 10.4644C53.816 10.2028 55.8109 9.98481 57.8057 9.7668C57.8057 7.71753 57.8057 5.88626 57.8057 3.88059C55.2346 4.1858 52.8851 4.44741 50.314 4.75262C50.7573 6.8891 51.1563 8.58956 51.5996 10.4644ZM62.15 3.92419C62.15 5.97346 62.15 7.89193 62.15 9.8104C64.2778 10.0284 66.2283 10.2464 68.4004 10.4644C68.7994 8.50235 69.1984 6.71469 69.5973 4.75262C66.9376 4.44741 64.6324 4.1858 62.15 3.92419ZM32.1833 99.9784C30.9864 101.635 29.9225 103.03 28.6812 104.731C30.942 106.039 33.0255 107.216 35.375 108.524C36.2616 106.562 37.0152 104.905 37.7688 103.161C35.7739 102.028 34.0894 101.068 32.1833 99.9784ZM41.4481 104.775C40.6059 106.606 39.8966 108.219 39.0543 110.138C41.4924 110.922 43.7976 111.664 46.1027 112.405C48.1862 106.998 48.1862 106.998 43.1326 105.254C42.645 105.123 42.1574 104.993 41.4481 104.775ZM62.1056 114.149C64.6768 113.844 67.0705 113.538 69.686 113.233C69.154 111.097 68.7551 109.396 68.3118 107.565C66.0953 107.827 64.1448 108.045 62.1056 108.263C62.1056 110.225 62.1056 112.056 62.1056 114.149ZM35.2863 9.46159C32.8925 10.8568 30.8977 12.0341 28.6812 13.3421C29.9668 15.0426 31.075 16.525 32.2276 18.0511C34.1338 16.9174 35.8626 15.9146 37.7244 14.8246C36.9265 13.0369 36.1729 11.4237 35.2863 9.46159ZM102.889 94.441C104.485 92.2609 105.903 90.2988 107.41 88.2496C105.504 87.2031 103.953 86.2875 102.268 85.3283C100.983 87.0723 99.7414 88.6856 98.4558 90.386C99.9187 91.7377 101.249 92.9585 102.889 94.441ZM39.01 7.93553C39.9852 9.9848 40.7832 11.6417 41.5368 13.2985C48.4078 10.9876 48.4078 10.9876 46.014 5.71185C43.7532 6.40948 41.4924 7.1071 39.01 7.93553ZM80.9013 7.89193C78.4189 7.1071 76.1138 6.36588 73.8086 5.62465C71.8581 11.1184 71.8581 11.1184 76.9117 12.7753C77.355 12.9061 77.8426 13.0369 78.4632 13.2113C79.2612 11.4673 80.0148 9.8104 80.9013 7.89193ZM115.478 66.754C113.306 66.536 111.489 66.3616 109.494 66.1872C109.051 68.3673 108.652 70.2857 108.208 72.3786C110.203 72.989 111.888 73.5122 113.838 74.1227C114.37 71.681 114.858 69.4573 115.478 66.754ZM98.5002 27.687C99.83 29.4311 101.071 31.0443 102.357 32.7012C104.13 31.6984 105.682 30.7827 107.455 29.7799C105.903 27.687 104.44 25.7686 102.889 23.6757C101.249 25.1145 99.8744 26.379 98.5002 27.687ZM21.4555 90.4296C20.1256 88.642 18.8844 87.0723 17.5989 85.3718C15.8257 86.3747 14.2741 87.2903 12.501 88.2932C14.0525 90.386 15.5154 92.3045 17.0669 94.3974C18.6184 93.0021 19.9483 91.7813 21.4555 90.4296ZM17.0669 23.6321C15.5154 25.725 14.0525 27.6434 12.501 29.7799C14.3185 30.8263 15.9587 31.742 17.6875 32.7012C19.0174 30.9135 20.2143 29.3003 21.4555 27.6434C20.037 26.3354 18.7514 25.1581 17.0669 23.6321ZM6.07319 74.1663C8.20101 73.5122 9.97419 72.9454 11.7917 72.335C11.2597 70.0677 10.8164 68.1493 10.3288 66.1872C8.24533 66.4052 6.47216 66.5796 4.47733 66.7976C5.05361 69.3701 5.49691 71.5938 6.07319 74.1663ZM78.5076 104.862C71.6808 106.737 71.2818 107.347 74.0303 112.361C76.2467 111.62 78.4632 110.879 80.857 110.094C80.0147 108.263 79.3055 106.649 78.5076 104.862ZM50.2697 113.277C52.9294 113.582 55.2789 113.844 57.8057 114.105C57.8057 112.056 57.8057 110.225 57.8057 108.219C55.7222 108.001 53.683 107.783 51.5552 107.565C51.1563 109.484 50.7573 111.14 50.2697 113.277ZM113.838 43.9068C111.799 44.5608 110.026 45.1276 108.12 45.6945C108.607 47.8745 109.051 49.793 109.538 51.8423C111.622 51.6679 113.395 51.4935 115.434 51.2755C114.858 48.703 114.37 46.4357 113.838 43.9068ZM6.07319 43.9504C5.54124 46.3921 5.05361 48.703 4.47733 51.3191C6.56082 51.4935 8.42266 51.6679 10.4175 51.8859C10.8608 49.7494 11.3041 47.7873 11.7474 45.7381C9.75254 45.084 8.06802 44.5608 6.07319 43.9504ZM77.9313 35.5789C76.5127 35.5789 75.3158 35.5789 74.1189 35.5789C74.1189 36.9306 74.1189 38.0642 74.1189 39.1978C75.4932 39.1978 76.69 39.1978 77.9313 39.1978C77.9313 37.9334 77.9313 36.8434 77.9313 35.5789ZM71.7695 84.5434C71.7695 83.279 71.7695 82.0581 71.7695 80.7937C70.4839 80.7937 69.287 80.7937 68.1345 80.7937C68.1345 82.1453 68.1345 83.3226 68.1345 84.5434C69.42 84.5434 70.4839 84.5434 71.7695 84.5434ZM62.7263 35.3173C61.485 34.4453 60.6428 33.4424 60.0665 33.5732C59.2686 33.7476 58.6923 34.7941 57.983 35.4481C58.6923 36.0585 59.3572 37.0614 60.1552 37.1922C60.7758 37.323 61.5294 36.2765 62.7263 35.3173ZM39.7636 75.9103C38.9213 77.3056 38.0347 78.134 38.1234 78.9188C38.1677 79.5293 39.5419 80.6629 40.0296 80.5321C40.8275 80.2705 41.7141 79.2676 41.8027 78.4828C41.8914 77.8724 40.7832 77.1312 39.7636 75.9103Z" fill="#FFE302"/>
<path d="M27.8389 41.16C27.8389 39.9391 27.8389 38.8055 27.8389 37.4974C25.2678 37.4974 22.6967 37.4974 19.505 37.4974C24.8688 28.2103 32.0502 21.7573 41.9357 17.3971C41.9357 22.3241 41.9357 26.9023 41.9357 31.4368C41.9357 32.5705 41.98 33.7477 41.9357 34.8813C41.8914 36.6254 42.778 37.4102 44.5068 37.4102C47.1666 37.3666 49.8263 37.323 52.4861 37.4538C53.3284 37.4974 54.3479 37.9771 54.8356 38.6311C57.451 41.7704 61.219 42.2936 63.9674 39.7211C66.5829 37.2794 66.5386 33.3989 63.7901 31.0444C60.9974 28.6463 57.4067 29.1695 54.8356 32.2216C54.3036 32.8321 53.3284 33.3553 52.4861 33.3989C50.4026 33.5733 48.3191 33.4425 46.0583 33.4425C46.0583 27.5999 46.0583 21.8445 46.0583 15.8275C60.7314 11.6417 74.3405 13.8218 86.9744 22.4549C89.1909 23.981 90.2105 25.6378 89.9002 28.2975C89.6342 30.5648 89.8559 32.8321 89.8559 35.2738C87.1074 35.2738 84.5806 35.2738 82.0539 35.2738C81.5219 31.4804 81.5219 31.4804 77.5323 31.4804C75.8034 31.4804 74.0302 31.4804 72.3014 31.4804C70.6612 31.4804 69.8633 32.3089 69.8633 33.9221C69.8633 36.233 69.8633 38.5003 69.8633 40.8112C69.8633 42.4244 70.5725 43.2964 72.257 43.2964C74.6508 43.2964 77.089 43.2964 79.4828 43.2964C82.1425 43.2964 81.7436 41.2472 81.9652 39.3723C84.8023 39.3723 87.595 39.3723 90.4321 39.3723C93.4909 39.3723 93.8455 39.0235 93.8455 35.9278C93.8455 33.7477 93.8455 31.5676 93.8455 29.1695C104.485 39.0235 110.425 59.9958 101.382 78.4829C91.3631 98.8448 68.8437 107.565 49.8707 103.074C52.4861 100.545 54.8799 98.1036 57.3624 95.7927C57.7613 95.4439 58.6036 95.4439 59.2242 95.4439C62.3273 95.4003 65.386 95.4439 68.489 95.4439C71.4148 95.4439 71.8138 95.0515 71.8138 92.1738C71.8138 91.0401 71.8138 89.9065 71.8138 88.8164C75.8034 88.2496 75.8034 88.2496 75.8034 84.3691C75.8034 82.6686 75.8034 80.9246 75.8034 79.2241C75.8034 77.6108 75.0055 76.7824 73.3653 76.826C70.9715 76.826 68.5334 76.826 66.1396 76.826C64.6324 76.826 63.8345 77.6544 63.8345 79.1369C63.8345 81.4914 63.8345 83.8895 63.8345 86.2439C63.8345 88.86 65.9179 88.5112 67.6911 88.6856C67.6911 89.6013 67.6911 90.4297 67.6911 91.5197C64.4107 91.5197 61.1747 91.3889 57.9386 91.5633C56.8304 91.6069 55.5005 92.1301 54.7026 92.8714C51.9542 95.3567 49.2944 97.9728 46.7233 100.676C45.7037 101.766 44.7728 101.94 43.4429 101.33C40.9161 100.109 38.345 98.9756 34.976 97.4059C36.5275 96.0979 37.6357 95.1387 38.7883 94.2666C41.2264 92.5226 42.246 90.2117 41.8027 87.2468C41.5367 85.4591 41.9357 84.1947 43.6645 82.9738C46.546 80.9246 46.4573 77.0004 43.9749 74.5587C41.5367 72.2043 37.8574 72.2043 35.5079 74.6459C33.0698 77.1312 33.2471 80.7938 35.9069 83.1482C38.5223 85.4155 38.611 88.9036 36.0842 91.4325C34.843 92.6534 33.6904 93.8742 31.9616 95.6183C28.7255 92.1738 25.3565 89.2525 22.7854 85.7207C13.2989 72.7275 11.304 58.5134 16.6236 43.34C17.1555 41.7704 17.9091 41.16 19.638 41.2908C22.0318 41.4652 24.4699 41.3344 26.8637 41.2908C27.2183 41.2908 27.3956 41.2472 27.8389 41.16ZM33.5574 70.7218C33.5574 65.0536 33.5574 59.5598 33.5574 53.4556C37.3698 58.7314 40.9161 63.3531 44.1078 68.2365C45.748 70.7218 47.6099 71.3322 50.314 70.591C50.314 62.8299 50.314 55.1125 50.314 47.395C48.9398 47.395 47.6985 47.395 46.1913 47.395C46.1913 52.8888 46.1913 58.2082 46.1913 63.5712C42.2903 59.0802 38.6996 54.5892 35.5523 49.8367C33.9121 47.3514 32.0059 46.741 29.2131 47.5258C29.2131 55.2433 29.2131 62.9607 29.2131 70.7654C30.6317 70.7218 31.8729 70.7218 33.5574 70.7218ZM60.0221 70.6782C60.0221 67.3209 60.0221 64.1816 60.0221 60.7371C63.7015 60.7371 67.1592 60.7371 70.6169 60.7371C70.6169 59.3418 70.6169 58.2518 70.6169 56.8565C66.9818 56.8565 63.5241 56.8565 60.0664 56.8565C60.0664 54.8072 60.0664 53.0196 60.0664 50.9267C63.8788 50.9267 67.5581 50.9267 71.2375 50.9267C71.2375 49.5315 71.2375 48.485 71.2375 47.3514C65.9623 47.3514 60.7757 47.3514 55.5892 47.3514C55.5892 55.1997 55.5892 62.8299 55.5892 70.6346C57.052 70.6782 58.3376 70.6782 60.0221 70.6782ZM84.0044 70.7654C84.0044 64.0944 84.0044 57.6849 84.0044 51.0139C86.3981 51.0139 88.4816 51.0139 90.6981 51.0139C90.6981 49.6623 90.6981 48.5722 90.6981 47.395C84.5806 47.395 78.6405 47.395 72.656 47.395C72.656 48.6594 72.656 49.7495 72.656 51.1883C75.0055 51.1883 77.1776 51.1883 79.6157 51.1883C79.6157 57.9466 79.6157 64.356 79.6157 70.809C81.1229 70.7654 82.3642 70.7654 84.0044 70.7654ZM56.0768 23.5013C57.4953 23.5013 58.6036 23.5013 59.8005 23.5013C59.8005 22.1933 59.8005 21.0597 59.8005 19.8824C58.4706 19.8824 57.2737 19.8824 56.0768 19.8824C56.0768 21.1033 56.0768 22.2369 56.0768 23.5013ZM94.1115 61.1295C94.1115 62.3939 94.1115 63.5712 94.1115 64.792C95.4414 64.792 96.6383 64.792 97.7908 64.792C97.7908 63.484 97.7908 62.3067 97.7908 61.1295C96.4609 61.1295 95.3527 61.1295 94.1115 61.1295ZM101.869 51.3627C100.406 51.3627 99.2537 51.3627 98.1011 51.3627C98.1011 52.6708 98.1011 53.7608 98.1011 54.938C99.431 54.938 100.584 54.938 101.869 54.938C101.869 53.6736 101.869 52.5836 101.869 51.3627ZM22.0318 78.4829C23.4946 78.4829 24.6472 78.4829 25.7998 78.4829C25.7998 77.1748 25.7998 76.0848 25.7998 74.9075C24.4699 74.9075 23.3173 74.9075 22.0318 74.9075C22.0318 76.172 22.0318 77.262 22.0318 78.4829ZM89.8559 78.8753C88.4816 78.8753 87.2847 78.8753 86.1765 78.8753C86.1765 80.2269 86.1765 81.3606 86.1765 82.4942C87.5064 82.4942 88.6146 82.4942 89.8559 82.4942C89.8559 81.2734 89.8559 80.1833 89.8559 78.8753ZM75.8477 27.4255C75.8477 26.0302 75.8477 24.9402 75.8477 23.763C74.5179 23.763 73.3653 23.763 72.1241 23.763C72.1241 25.071 72.1241 26.2482 72.1241 27.4255C73.4096 27.4255 74.5622 27.4255 75.8477 27.4255ZM35.8626 37.5846C34.444 37.5846 33.2471 37.5846 32.0946 37.5846C32.0946 38.8927 32.0946 39.9827 32.0946 41.2036C33.3801 41.2036 34.577 41.2036 35.8626 41.2036C35.8626 39.9391 35.8626 38.8491 35.8626 37.5846ZM18.0864 59.1238C18.0864 60.519 18.0864 61.6091 18.0864 62.7863C19.4163 62.7863 20.5689 62.7863 21.7658 62.7863C21.7658 61.4783 21.7658 60.301 21.7658 59.1238C20.4802 59.1238 19.372 59.1238 18.0864 59.1238Z" fill="#2A0057"/>
<path d="M33.5575 70.7216C31.873 70.7216 30.6318 70.7216 29.2576 70.7216C29.2576 62.917 29.2576 55.1995 29.2576 47.482C32.0503 46.6972 33.9122 47.3076 35.5967 49.7929C38.7884 54.5455 42.3348 59.0364 46.2358 63.5274C46.2358 58.1644 46.2358 52.845 46.2358 47.3512C47.743 47.3512 48.9399 47.3512 50.3584 47.3512C50.3584 55.0687 50.3584 62.7862 50.3584 70.5472C47.6543 71.2885 45.7925 70.678 44.1523 68.1928C40.9606 63.3094 37.4142 58.6876 33.6019 53.4118C33.5575 59.5597 33.5575 65.0534 33.5575 70.7216Z" fill="white"/>
<path d="M60.0222 70.678C58.2933 70.678 57.0078 70.678 55.5892 70.678C55.5892 62.8733 55.5892 55.2431 55.5892 47.3948C60.7758 47.3948 65.9623 47.3948 71.2375 47.3948C71.2375 48.5284 71.2375 49.5749 71.2375 50.9701C67.5139 50.9701 63.8345 50.9701 60.0665 50.9701C60.0665 53.1066 60.0665 54.8506 60.0665 56.8999C63.5242 56.8999 66.9819 56.8999 70.6169 56.8999C70.6169 58.2952 70.6169 59.3852 70.6169 60.7804C67.1592 60.7804 63.7459 60.7804 60.0222 60.7804C60.0222 64.1814 60.0222 67.3643 60.0222 70.678Z" fill="white"/>
<path d="M84.0045 70.7653C82.3643 70.7653 81.1231 70.7653 79.6159 70.7653C79.6159 64.3559 79.6159 57.9029 79.6159 51.1447C77.1777 51.1447 75.0056 51.1447 72.6561 51.1447C72.6561 49.7058 72.6561 48.6158 72.6561 47.3513C78.6406 47.3513 84.5808 47.3513 90.6982 47.3513C90.6982 48.5286 90.6982 49.6186 90.6982 50.9702C88.4818 50.9702 86.3539 50.9702 84.0045 50.9702C84.0045 57.6849 84.0045 64.0943 84.0045 70.7653Z" fill="white"/>
</svg>
