<svg width="126" height="119" viewBox="0 0 126 119" fill="none" xmlns="http://www.w3.org/2000/svg">
<path d="M10.2043 118.029C9.84309 117.941 9.43673 117.852 9.07551 117.807C4.65064 117.23 1.08364 113.811 0.27091 109.503C0.0903029 108.57 0 107.593 0 106.616C0 81.4798 0 56.3435 0 31.2072C0 29.9637 0.180606 28.7646 0.54182 27.5656C1.67062 23.8795 4.83124 21.0817 8.66915 20.4155C9.25612 20.3267 9.88825 20.2823 10.4752 20.2379C10.6107 20.2379 10.7461 20.2379 10.8816 20.2379C27.9941 20.2379 45.1518 20.2379 62.2643 20.2379C62.5804 20.2379 62.8965 20.2379 63.2577 20.2823C64.251 20.4155 65.425 21.3481 65.3798 22.9025C65.3347 24.1904 64.251 25.2562 62.9416 25.3451C62.7159 25.3451 62.445 25.3451 62.2192 25.3451C45.1067 25.3451 27.9941 25.3451 10.8816 25.3451C10.2495 25.3451 9.61734 25.3895 8.98521 25.5671C6.77277 26.2333 5.28276 28.1429 5.23761 30.4078C5.23761 32.0066 5.23761 33.6054 5.23761 35.2042C5.23761 35.293 5.23761 35.3818 5.23761 35.515C5.37306 35.5594 5.46337 35.5594 5.59883 35.6038C5.77943 35.6038 5.96004 35.6038 6.14065 35.6038C10.7913 35.6038 15.4419 35.6038 20.0926 35.6038C20.3183 35.6038 20.5892 35.5594 20.8601 35.6483C20.8601 35.7815 20.9053 35.8703 20.9053 36.0035C20.9053 36.1368 20.9053 36.27 20.9053 36.4032C20.9053 58.1643 20.9053 79.881 20.9053 101.642C20.9053 101.864 20.9053 102.131 20.9053 102.397C20.0023 102.441 19.1444 102.397 18.3316 102.441C17.4738 102.441 16.5707 102.441 15.7128 102.441C14.8549 102.441 13.9971 102.441 13.1392 102.441C12.2813 102.441 11.4234 102.441 10.5655 102.441C9.70764 102.441 8.8046 102.441 7.94672 102.441C7.08883 102.441 6.23095 102.441 5.37307 102.441C5.37307 102.575 5.32791 102.708 5.32791 102.841C5.32791 104.484 5.28276 106.083 5.32791 107.726C5.37306 110.08 7.08883 112.212 9.70764 112.7C9.97855 112.745 10.2946 112.745 10.5655 112.745C10.7913 112.745 11.0622 112.745 11.288 112.745C45.6485 112.745 80.009 112.745 114.37 112.745C114.731 112.745 115.092 112.745 115.453 112.745C117.711 112.656 119.878 110.879 120.239 108.392C120.284 108.037 120.33 107.682 120.33 107.327C120.33 105.284 120.33 103.241 120.33 101.198C120.33 77.8381 120.33 54.4782 120.33 31.074C120.33 30.4078 120.284 29.7861 120.104 29.1643C119.517 26.9882 117.53 25.4783 115.273 25.3895C114.957 25.3895 114.64 25.3451 114.324 25.2562C113.376 24.9898 112.383 24.0127 112.518 22.5472C112.609 21.4814 113.466 20.4599 114.686 20.2379C115.363 20.149 115.995 20.1935 116.627 20.3267C120.6 20.904 123.851 23.6575 125.071 27.3879C125.251 27.9653 125.387 28.5426 125.432 29.1643C125.432 29.2976 125.477 29.4308 125.522 29.564C125.522 55.855 125.522 82.1459 125.522 108.481C125.477 108.659 125.432 108.881 125.432 109.059C125.387 109.325 125.387 109.592 125.341 109.814C124.393 114.077 120.781 117.23 116.582 117.763C116.176 117.807 115.769 117.896 115.408 117.985C80.2799 118.029 45.2421 118.029 10.2043 118.029ZM15.758 56.2103C15.758 55.9438 15.758 55.7662 15.758 55.5441C15.758 50.881 15.758 46.2179 15.758 41.5548C15.758 41.4216 15.758 41.3328 15.758 41.1996C15.758 41.0663 15.7128 40.9775 15.6677 40.8443C15.4419 40.8443 15.2162 40.8443 15.0356 40.8443C13.3198 40.8443 11.5589 40.8443 9.84309 40.8443C8.48854 40.8443 7.13399 40.8443 5.82458 40.8443C5.68913 40.8443 5.50852 40.7999 5.32791 40.9775C5.32791 41.1551 5.32791 41.3772 5.32791 41.5992C5.32791 45.0633 5.32791 48.4829 5.32791 51.9469C5.32791 53.1903 5.32791 54.4782 5.32791 55.7217C5.32791 55.855 5.37307 56.0326 5.37307 56.1658C5.91489 56.2547 15.0807 56.2547 15.758 56.2103ZM15.7128 61.4063C15.4419 61.4063 15.2162 61.4063 14.9904 61.4063C12.2361 61.4063 9.52703 61.4063 6.77277 61.4063C6.41156 61.4063 6.05034 61.4063 5.68913 61.4063C5.55367 61.4063 5.46337 61.4507 5.32791 61.4951C5.32791 61.7616 5.32791 61.9836 5.32791 62.2501C5.32791 66.0249 5.32791 69.7998 5.32791 73.5747C5.32791 74.5073 5.32791 75.4399 5.32791 76.417C5.32791 76.5502 5.37307 76.6834 5.37307 76.8611C5.55367 76.8611 5.68913 76.9055 5.82458 76.9055C8.98521 76.9055 12.1458 76.9055 15.3065 76.9055C15.4419 76.9055 15.5774 76.8611 15.7128 76.8611C15.7128 76.7723 15.758 76.6834 15.758 76.5946C15.758 71.6207 15.758 66.6911 15.758 61.7171C15.758 61.5839 15.7128 61.5395 15.7128 61.4063ZM15.758 97.3343C15.758 97.0678 15.758 96.8457 15.758 96.6237C15.758 92.005 15.758 87.3863 15.758 82.7677C15.758 82.6344 15.758 82.5012 15.758 82.368C15.758 82.2347 15.7128 82.1459 15.7128 82.0127C15.4419 82.0127 15.2162 82.0127 15.0356 82.0127C13.5004 82.0127 11.9652 82.0127 10.4301 82.0127C8.94006 82.0127 7.45005 82.0127 5.96004 82.0127C5.77943 82.0127 5.55367 81.9683 5.32791 82.1459C5.32791 82.3236 5.32791 82.5456 5.32791 82.7677C5.32791 87.3863 5.32791 92.0494 5.32791 96.6681C5.32791 96.8013 5.32791 96.8902 5.32791 97.0234C5.32791 97.1566 5.37307 97.2454 5.41822 97.3787C8.75945 97.3787 12.0555 97.3787 15.3516 97.3787C15.4419 97.3787 15.5774 97.3343 15.758 97.3343Z" fill="#FFE302"/>
<path d="M109.764 102.486C109.764 102.397 109.809 102.353 109.809 102.308C109.809 80.2362 109.809 58.1199 109.809 36.0479C109.809 35.9591 109.809 35.8703 109.764 35.8259C109.583 35.6482 109.403 35.6926 109.222 35.6926C107.822 35.6926 106.423 35.6926 104.978 35.6926C104.752 35.6926 104.526 35.6926 104.301 35.6926C102.946 35.6038 101.908 34.4492 101.908 33.1613C101.908 31.8289 102.991 30.6743 104.346 30.6299C104.526 30.6299 104.662 30.6299 104.842 30.6299C108.003 30.6299 111.119 30.6299 114.279 30.6299C114.46 30.6299 114.686 30.6299 114.911 30.6299C114.956 30.7631 114.956 30.8963 115.002 30.9851C115.002 31.1628 115.002 31.3404 115.002 31.5181C115.002 56.6099 115.002 81.7018 115.002 106.794C115.002 107.06 115.047 107.371 114.956 107.637C114.821 107.637 114.731 107.682 114.595 107.682C114.415 107.682 114.279 107.682 114.099 107.682C85.1111 107.682 56.0785 107.682 27.0911 107.682C26.8201 107.682 26.5041 107.726 26.2332 107.637C26.2332 107.504 26.188 107.371 26.188 107.282C26.0977 104.307 26.1429 31.296 26.2332 30.6299C26.3235 30.6299 26.4589 30.5854 26.5492 30.5854C26.7298 30.5854 26.8653 30.5854 27.0459 30.5854C35.2635 30.5854 43.4812 30.5854 51.7439 30.5854C51.9697 30.5854 52.2406 30.5854 52.4664 30.5854C53.8209 30.6743 54.8594 31.7401 54.9046 33.0724C54.9497 34.5824 53.6855 35.6482 52.5567 35.6926C52.2858 35.6926 52.0149 35.6926 51.7439 35.6926C45.2421 35.6926 38.7402 35.6926 32.1932 35.6926C31.9674 35.6926 31.6965 35.6926 31.4256 35.6926C31.3805 35.8259 31.3805 35.9591 31.3353 36.0479C31.3353 36.2256 31.3353 36.3588 31.3353 36.5364C31.3353 58.2531 31.3353 79.9254 31.3353 101.642C31.3353 101.908 31.3353 102.175 31.3353 102.441C31.4708 102.441 31.6062 102.486 31.6965 102.486C31.832 102.486 31.9675 102.486 32.1029 102.486C57.6588 102.486 83.2599 102.486 108.816 102.486C109.267 102.53 109.493 102.53 109.764 102.486Z" fill="white"/>
<path d="M15.758 56.2103C15.0807 56.2991 5.91486 56.2547 5.37304 56.2103C5.37304 56.0771 5.32788 55.8994 5.32788 55.7662C5.32788 54.5227 5.32788 53.2348 5.32788 51.9913C5.32788 48.5273 5.32788 45.1077 5.32788 41.6437C5.32788 41.4216 5.32788 41.1996 5.32788 41.022C5.46334 40.8443 5.64395 40.8887 5.82455 40.8887C7.17911 40.8887 8.53366 40.8887 9.84306 40.8887C11.5588 40.8887 13.3198 40.8887 15.0355 40.8887C15.2161 40.8887 15.4419 40.8887 15.6676 40.8887C15.7128 41.022 15.7128 41.1552 15.758 41.244C15.758 41.3772 15.758 41.4661 15.758 41.5993C15.758 46.2624 15.758 50.9255 15.758 55.5886C15.758 55.7218 15.758 55.9438 15.758 56.2103Z" fill="#2A0057"/>
<path d="M15.7128 61.4062C15.7579 61.5394 15.758 61.5838 15.758 61.6283C15.758 66.6022 15.758 71.5318 15.758 76.5057C15.758 76.5945 15.7128 76.6834 15.7128 76.7722C15.5773 76.7722 15.4419 76.8166 15.3064 76.8166C12.1458 76.8166 8.98518 76.8166 5.82455 76.8166C5.6891 76.8166 5.55364 76.8166 5.37304 76.7722C5.37304 76.5945 5.32788 76.4613 5.32788 76.3281C5.32788 75.3955 5.32788 74.4628 5.32788 73.4858C5.32788 69.7109 5.32788 65.9361 5.32788 62.1612C5.32788 61.9391 5.32788 61.6727 5.32788 61.4062C5.46334 61.3618 5.59879 61.3174 5.6891 61.3174C6.05031 61.3174 6.41153 61.3174 6.77274 61.3174C9.527 61.3174 12.2361 61.3174 14.9904 61.3174C15.2161 61.4062 15.4419 61.4062 15.7128 61.4062Z" fill="#2A0057"/>
<path d="M15.7579 97.3343C15.5773 97.3343 15.4419 97.3787 15.3064 97.3787C12.0103 97.3787 8.71425 97.3787 5.37302 97.3787C5.32787 97.2455 5.32787 97.1123 5.28271 97.0235C5.28271 96.8902 5.28271 96.8014 5.28271 96.6682C5.28271 92.0495 5.28271 87.3864 5.28271 82.7677C5.28271 82.5457 5.28271 82.3236 5.28271 82.146C5.50847 81.9683 5.68908 82.0127 5.91484 82.0127C7.40485 82.0127 8.89486 82.0127 10.3849 82.0127C11.92 82.0127 13.4552 82.0127 14.9904 82.0127C15.2161 82.0127 15.4419 82.0127 15.6676 82.0127C15.7128 82.146 15.7128 82.2792 15.7128 82.368C15.7128 82.5013 15.7128 82.6345 15.7128 82.7677C15.7128 87.3864 15.7128 92.0051 15.7128 96.6238C15.7579 96.8014 15.7579 97.0235 15.7579 97.3343Z" fill="#2A0057"/>
<path d="M82.8987 21.5256C85.3821 23.9682 87.8203 26.3664 90.2585 28.7645C90.2133 28.8089 90.123 28.9422 90.0327 29.031C89.9424 29.1642 89.8069 29.253 89.6715 29.3863C81.9505 36.9804 74.2296 44.5746 66.5086 52.1688C66.328 52.3464 66.1474 52.5241 65.9668 52.6573C65.6959 52.6129 65.6056 52.4352 65.425 52.2576C63.3931 50.2591 61.3613 48.2607 59.3295 46.2622C59.0586 45.9957 58.8328 45.7737 58.5619 45.4628C58.6522 45.374 58.6973 45.2852 58.7876 45.1964C66.8247 37.3357 74.8617 29.4307 82.8987 21.5256Z" fill="#FFE302"/>
<path d="M105.068 14.1979C105.023 14.2867 105.023 14.3311 104.978 14.3755C101.366 17.9284 97.7536 21.4812 94.0963 25.0784C93.9609 24.9896 93.8706 24.9452 93.7803 24.8564C91.4775 22.5915 89.1748 20.3265 86.872 18.0616C86.8269 18.0172 86.7817 17.9728 86.7366 17.884C86.7817 17.7951 86.872 17.7063 86.9172 17.6175C87.2784 17.2622 87.5945 16.9513 87.9557 16.5961C91.026 13.5762 94.1415 10.5118 97.2118 7.49193C97.3473 7.3587 97.5278 7.18106 97.7085 7.00342C97.8439 7.09224 97.9342 7.18106 98.0245 7.26988C100.282 9.4904 102.54 11.7109 104.797 13.9314C104.888 13.9758 104.978 14.0647 105.068 14.1979Z" fill="#FFE302"/>
<path d="M108.816 10.4676C108.771 10.4232 108.726 10.4232 108.68 10.3787C106.287 8.02499 103.894 5.67124 101.501 3.31749C101.501 3.22867 101.501 3.18426 101.546 3.18426C102.179 2.56252 102.766 1.89636 103.443 1.31903C104.662 0.25318 106.107 -0.190924 107.732 0.0755386C109.809 0.386411 111.254 1.54108 111.886 3.49514C112.473 5.31596 112.157 7.00355 110.893 8.4691C110.261 9.17966 109.584 9.80141 108.906 10.4232C108.906 10.4676 108.861 10.4676 108.816 10.4676Z" fill="#FFE302"/>
<path d="M56.0333 50.3481C56.4397 50.6146 59.9615 54.0342 60.8194 54.9668C60.8646 55.0112 60.9097 55.1001 60.9549 55.1445C60.5033 55.3665 55.0851 57.0985 53.866 57.4094C53.7306 57.2762 53.866 57.0985 53.9112 56.9653C54.3627 55.5886 54.8142 54.1674 55.2657 52.7907C55.4915 52.1246 55.7173 51.414 55.943 50.7478C55.943 50.6146 55.9882 50.4814 56.0333 50.3481Z" fill="#FFE302"/>
<path d="M112.293 35.7371H28.4457V106.261H112.293V35.7371Z" fill="#2A0057"/>
</svg>
