<svg width="87" height="48" viewBox="0 0 87 48" fill="none" xmlns="http://www.w3.org/2000/svg">
<path d="M30.5118 33.2856C30.5118 35.9571 29.8362 38.42 28.4851 40.6741C27.1761 42.9282 25.3816 44.7231 23.1016 46.0589C20.8215 47.353 18.3303 48 15.628 48C12.9257 48 10.4345 47.353 8.15448 46.0589C5.87441 44.7231 4.0588 42.9282 2.70765 40.6741C1.39873 38.42 0.744263 35.9571 0.744263 33.2856V17.3189C0.744263 14.6473 1.39873 12.1845 2.70765 9.93038C4.0588 7.67626 5.87441 5.90219 8.15448 4.60816C10.4345 3.27238 12.9257 2.60449 15.628 2.60449C18.3303 2.60449 20.8215 3.27238 23.1016 4.60816C25.3816 5.90219 27.1761 7.67626 28.4851 9.93038C29.8362 12.1845 30.5118 14.6473 30.5118 17.3189V33.2856ZM3.02433 33.2856C3.02433 34.7048 3.29878 36.1658 3.84769 37.6686L26.205 10.6818C25.065 8.92855 23.566 7.53016 21.7082 6.48659C19.8504 5.44302 17.8236 4.92123 15.628 4.92123C13.348 4.92123 11.2368 5.48476 9.29451 6.61182C7.39445 7.69714 5.87441 9.19988 4.73438 11.1201C3.59434 12.9985 3.02433 15.0648 3.02433 17.3189V33.2856ZM28.2317 17.3189C28.2317 15.8996 27.9573 14.4386 27.4084 12.9359L5.05105 39.9227C6.19109 41.7177 7.69002 43.1369 9.54785 44.1805C11.4057 45.2241 13.4324 45.7459 15.628 45.7459C17.9081 45.7459 19.9982 45.1823 21.8982 44.0553C23.8405 42.9282 25.3816 41.4255 26.5217 39.547C27.6617 37.6268 28.2317 35.5397 28.2317 33.2856V17.3189Z" fill="#9F00FF"/>
<path d="M29.7675 30.6811C29.7675 33.3526 29.092 35.8155 27.7408 38.0696C26.4319 40.3237 24.6374 42.1187 22.3573 43.4544C20.0772 44.7485 17.5861 45.3955 14.8838 45.3955C12.1815 45.3955 9.69028 44.7485 7.41021 43.4544C5.13015 42.1187 3.31454 40.3237 1.96339 38.0696C0.654463 35.8155 0 33.3526 0 30.6811V14.7144C0 12.0428 0.654463 9.58001 1.96339 7.32589C3.31454 5.07177 5.13015 3.2977 7.41021 2.00366C9.69028 0.667888 12.1815 0 14.8838 0C17.5861 0 20.0772 0.667888 22.3573 2.00366C24.6374 3.2977 26.4319 5.07177 27.7408 7.32589C29.092 9.58001 29.7675 12.0428 29.7675 14.7144V30.6811ZM2.28007 30.6811C2.28007 32.1003 2.55452 33.5613 3.10342 35.0641L25.4607 8.07726C24.3207 6.32406 22.8218 4.92567 20.9639 3.8821C19.1061 2.83852 17.0794 2.31674 14.8838 2.31674C12.6037 2.31674 10.4925 2.88026 8.55025 4.00733C6.65019 5.09264 5.13015 6.59539 3.99011 8.51557C2.85008 10.394 2.28007 12.4603 2.28007 14.7144V30.6811ZM27.4875 14.7144C27.4875 13.2951 27.213 11.8341 26.6641 10.3314L4.30679 37.3182C5.44682 39.1132 6.94576 40.5324 8.80359 41.576C10.6614 42.6196 12.6881 43.1414 14.8838 43.1414C17.1638 43.1414 19.2539 42.5778 21.1539 41.4508C23.0962 40.3237 24.6374 38.821 25.7774 36.9425C26.9174 35.0224 27.4875 32.9352 27.4875 30.6811V14.7144Z" fill="#FFE302"/>
<path d="M30.1396 31.9179C30.1396 34.5675 29.464 37.0102 28.1129 39.2458C26.8039 41.4815 25.0094 43.2617 22.7294 44.5865C20.4493 45.87 17.9581 46.5117 15.2558 46.5117C12.5535 46.5117 10.0624 45.87 7.78228 44.5865C5.50222 43.2617 3.68661 41.4815 2.33546 39.2458C1.02653 37.0102 0.37207 34.5675 0.37207 31.9179V16.0821C0.37207 13.4324 1.02653 10.9898 2.33546 8.75412C3.68661 6.51848 5.50222 4.75895 7.78228 3.47552C10.0624 2.15069 12.5535 1.48828 15.2558 1.48828C17.9581 1.48828 20.4493 2.15069 22.7294 3.47552C25.0094 4.75895 26.8039 6.51848 28.1129 8.75412C29.464 10.9898 30.1396 13.4324 30.1396 16.0821V31.9179ZM2.65214 31.9179C2.65214 33.3255 2.92659 34.7745 3.47549 36.265L25.8328 9.49934C24.6928 7.76051 23.1938 6.37358 21.336 5.33856C19.4782 4.30354 17.4515 3.78603 15.2558 3.78603C12.9758 3.78603 10.8646 4.34494 8.92232 5.46276C7.02226 6.53918 5.50222 8.02961 4.36219 9.93405C3.22215 11.7971 2.65214 13.8464 2.65214 16.0821V31.9179ZM27.8595 16.0821C27.8595 14.6744 27.5851 13.2254 27.0362 11.735L4.67886 38.5006C5.81889 40.2808 7.31783 41.6885 9.17566 42.7235C11.0335 43.7585 13.0602 44.276 15.2558 44.276C17.5359 44.276 19.626 43.7171 21.526 42.5993C23.4683 41.4815 25.0094 39.991 26.1495 38.128C27.2895 36.2236 27.8595 34.1535 27.8595 31.9179V16.0821Z" fill="#333333"/>
<path d="M44.5225 21.1403C48.6842 21.1403 51.7991 17.8211 51.7991 11.9998C51.7991 6.17853 48.6842 2.85938 44.5225 2.85938C40.3353 2.85938 37.2204 6.17853 37.2204 11.9998C37.2204 17.8211 40.3353 21.1403 44.5225 21.1403ZM44.5225 18.8679C41.714 18.8679 39.7736 16.5701 39.7736 11.9998C39.7736 7.4296 41.714 5.13172 44.5225 5.13172C47.3055 5.13172 49.2459 7.4296 49.2459 11.9998C49.2459 16.5701 47.3055 18.8679 44.5225 18.8679Z" fill="white"/>
<path d="M69.0278 20.936L62.2619 11.6934L68.5683 3.06363H65.7853L60.8321 9.93174L55.8278 3.06363H52.9172L59.2236 11.77L52.5086 20.936H55.4448L60.7299 13.5573L66.0917 20.936H69.0278Z" fill="white"/>
<path d="M77.0359 21.1403C81.1976 21.1403 84.3125 17.8211 84.3125 11.9998C84.3125 6.17853 81.1976 2.85938 77.0359 2.85938C72.8487 2.85938 69.7338 6.17853 69.7338 11.9998C69.7338 17.8211 72.8487 21.1403 77.0359 21.1403ZM77.0359 18.8679C74.2274 18.8679 72.287 16.5701 72.287 11.9998C72.287 7.4296 74.2274 5.13172 77.0359 5.13172C79.8189 5.13172 81.7593 7.4296 81.7593 11.9998C81.7593 16.5701 79.8189 18.8679 77.0359 18.8679Z" fill="white"/>
<path d="M50.8072 44.9361H53.488L45.3689 27.0637H42.8412L34.7476 44.9361H37.3774L39.3433 40.468H48.8412L50.8072 44.9361ZM40.2369 38.4254L44.0923 29.668L47.9476 38.4254H40.2369Z" fill="white"/>
<path d="M70.8861 44.9361L66.6478 38.9361C69.1499 38.0425 70.5797 36.051 70.5797 33.2935C70.5797 29.4126 67.7712 27.0637 63.1244 27.0637H56.1541V44.9361H58.7073V39.4978H63.1244C63.5073 39.4978 63.8903 39.4722 64.2478 39.4467L68.1031 44.9361H70.8861ZM63.0478 37.3276H58.7073V29.285H63.0478C66.3159 29.285 68.0265 30.7403 68.0265 33.2935C68.0265 35.8467 66.3159 37.3276 63.0478 37.3276Z" fill="white"/>
<path d="M78.0043 44.9361H80.532V29.285H86.6597V27.0637H71.8767V29.285H78.0043V44.9361Z" fill="white"/>
</svg>
