        
<svg width="32" height="32" viewBox="0 0 32 32" fill="none" xmlns="http://www.w3.org/2000/svg">
<path d="M0 0V32H32V0H0ZM26.583 7.583L24.869 9.229C24.7954 9.28296 24.7384 9.35638 24.7043 9.44101C24.6702 9.52564 24.6604 9.61811 24.676 9.708V21.797C24.6602 21.8876 24.6699 21.9809 24.704 22.0663C24.7381 22.1518 24.7952 22.2261 24.869 22.281L26.541 23.927V24.286H18.114V23.927L19.848 22.239C20.02 22.067 20.02 22.02 20.02 21.76V11.984L15.192 24.244H14.541L8.921 11.984V20.203C8.874 20.547 8.989 20.896 9.228 21.146L11.488 23.886V24.245H5.087V23.886L7.347 21.146C7.587 20.896 7.696 20.547 7.633 20.203V10.703C7.64765 10.5727 7.63067 10.4407 7.58349 10.3184C7.53632 10.196 7.46034 10.0868 7.362 10L5.357 7.583V7.218H11.586L16.404 17.786L20.638 7.218H26.581L26.583 7.583Z" fill="#E0E0E0"/>
</svg>