   
<svg width="31" height="26" viewBox="0 0 31 26" fill="none" xmlns="http://www.w3.org/2000/svg">
<path d="M30.524 3.58244C29.4107 4.07578 28.2147 4.40911 26.9573 4.55978C28.2547 3.7835 29.2253 2.56173 29.688 1.12244C28.4691 1.84643 27.1351 2.35604 25.744 2.62911C24.8085 1.63026 23.5694 0.968212 22.2191 0.745742C20.8688 0.523273 19.4828 0.752832 18.2763 1.39878C17.0698 2.04473 16.1104 3.07093 15.5469 4.31805C14.9834 5.56517 14.8474 6.96344 15.16 8.29578C12.6902 8.17177 10.2742 7.52984 8.06856 6.41165C5.86296 5.29346 3.91712 3.72399 2.35733 1.80511C1.824 2.72511 1.51733 3.79178 1.51733 4.92778C1.51673 5.95044 1.76857 6.95743 2.2505 7.85942C2.73243 8.76141 3.42954 9.53049 4.28 10.0984C3.2937 10.0671 2.32916 9.80056 1.46666 9.32111V9.40111C1.46656 10.8354 1.96271 12.2256 2.87091 13.3358C3.77911 14.4459 5.04342 15.2077 6.44933 15.4918C5.53437 15.7394 4.57511 15.7759 3.644 15.5984C4.04066 16.8326 4.81332 17.9118 5.85382 18.685C6.89431 19.4582 8.15055 19.8867 9.44666 19.9104C7.24644 21.6377 4.52918 22.5746 1.732 22.5704C1.2365 22.5706 0.74143 22.5416 0.249329 22.4838C3.08863 24.3093 6.39378 25.2782 9.76933 25.2744C21.196 25.2744 27.4427 15.8104 27.4427 7.60244C27.4427 7.33578 27.436 7.06644 27.424 6.79978C28.6391 5.92108 29.6879 4.83297 30.5213 3.58644L30.524 3.58244Z" fill="#E0E0E0"/>
</svg>
