<svg width="507" height="318" viewBox="0 0 507 318" fill="none" xmlns="http://www.w3.org/2000/svg">
<path fill-rule="evenodd" clip-rule="evenodd" d="M335.492 0.0437524C335.358 0.0151042 335.218 3.05363e-05 335.074 3.05176e-05L2.9827 0C1.87811 0 0.982696 0.895431 0.982697 2C0.982697 3.10457 1.87811 4 2.9827 4L331.45 4.00003C331.461 4.00019 331.471 4.00027 331.482 4.00027C374.499 4.00028 425.467 19.4921 455.661 48.5715C485.947 77.7397 502.947 117.284 502.947 158.5C502.947 199.717 485.947 239.261 455.661 268.429C425.441 297.533 376.517 313.993 333.562 314C333.553 314 333.544 314 333.535 314L2.98267 314C1.87808 314 0.982666 314.895 0.982666 316C0.982666 317.105 1.87808 318 2.98267 318L333.507 318C333.516 318 333.525 318 333.535 318C377.318 318 427.324 301.274 458.436 271.31C489.488 241.404 506.947 200.827 506.947 158.5C506.947 116.173 489.487 75.5962 458.436 45.6904C428.239 16.6077 378.357 0.967793 335.492 0.0437524Z" fill="url(#paint0_linear_27_1179)"/>
<defs>
<linearGradient id="paint0_linear_27_1179" x1="303.754" y1="-70" x2="303.754" y2="364.5" gradientUnits="userSpaceOnUse">
<stop stop-color="#FFE302"/>
<stop offset="1" stop-color="#0C09BA"/>
</linearGradient>
</defs>
</svg>
