<svg width="481" height="318" viewBox="0 0 481 318" fill="none" xmlns="http://www.w3.org/2000/svg">
<path fill-rule="evenodd" clip-rule="evenodd" d="M305.538 4.00001L2.64673 4.00006C1.54214 4.00006 0.646729 3.10463 0.646729 2.00006C0.646729 0.895492 1.54214 6.12305e-05 2.64673 6.1088e-05L305.476 8.3723e-06C305.478 2.79203e-06 305.48 0 305.482 0C305.5 0 305.519 2.79072e-06 305.537 8.36166e-06L308.374 7.86781e-06C308.489 7.853e-06 308.602 0.00967913 308.711 0.0282518C351.749 0.777785 402.055 16.4306 432.436 45.6902C463.488 75.5959 480.947 116.173 480.947 158.5C480.947 200.827 463.488 241.404 432.436 271.31C401.315 301.283 351.302 317.5 307.535 317.5C307.028 317.5 306.565 317.311 306.212 317L2.64673 317C1.54214 317 0.646729 316.105 0.646729 315C0.646729 313.895 1.54214 313 2.64673 313L308.374 313C308.874 313 309.331 313.183 309.682 313.487C352.133 312.966 399.947 297.047 429.661 268.429C459.947 239.261 476.947 199.716 476.947 158.5C476.947 117.284 459.947 77.7394 429.661 48.5712C399.48 19.5043 348.543 4.01333 305.538 4.00001Z" fill="url(#paint0_linear_27_1173)"/>
<defs>
<linearGradient id="paint0_linear_27_1173" x1="240.797" y1="4.90978e-09" x2="240.688" y2="359.263" gradientUnits="userSpaceOnUse">
<stop stop-color="#5A0582"/>
<stop offset="1" stop-color="#9F00FF"/>
</linearGradient>
</defs>
</svg>
